<svg width="24" height="20" viewBox="0 0 24 20" fill="none" xmlns="http://www.w3.org/2000/svg">
<path d="M2.10059 0.148438C2.65527 0.148438 3.14355 0.246094 3.56543 0.441406C3.99512 0.636719 4.33105 0.90625 4.57324 1.25C4.82324 1.58594 4.94824 1.97266 4.94824 2.41016C4.94824 2.76172 4.87012 3.0625 4.71387 3.3125C4.55762 3.55469 4.3623 3.75 4.12793 3.89844C3.89355 4.04688 3.65527 4.14453 3.41309 4.19141C3.65527 4.24609 3.89355 4.35156 4.12793 4.50781C4.3623 4.65625 4.55762 4.85547 4.71387 5.10547C4.87012 5.34766 4.94824 5.64453 4.94824 5.99609C4.94824 6.45703 4.81934 6.86328 4.56152 7.21484C4.31152 7.56641 3.97168 7.84375 3.54199 8.04688C3.1123 8.25 2.62793 8.35156 2.08887 8.35156C1.66699 8.35156 1.27246 8.28906 0.905273 8.16406C0.545898 8.03125 0.260742 7.875 0.0498047 7.69531V6.16016C0.31543 6.33984 0.592773 6.51172 0.881836 6.67578C1.1709 6.83203 1.51465 6.91016 1.91309 6.91016C2.31152 6.91016 2.64746 6.81641 2.9209 6.62891C3.19434 6.44141 3.33105 6.16016 3.33105 5.78516C3.33105 5.56641 3.26074 5.38672 3.12012 5.24609C2.97949 5.09766 2.7959 4.98828 2.56934 4.91797C2.35059 4.83984 2.11621 4.80078 1.86621 4.80078H1.22168V3.53516H1.86621C2.27246 3.53516 2.61621 3.47656 2.89746 3.35938C3.18652 3.24219 3.33105 3.01562 3.33105 2.67969C3.33105 2.33594 3.18262 2.07031 2.88574 1.88281C2.59668 1.6875 2.25684 1.58984 1.86621 1.58984C1.53027 1.58984 1.2334 1.66016 0.975586 1.80078C0.717773 1.93359 0.479492 2.10938 0.260742 2.32812V0.804688C0.463867 0.617188 0.72168 0.460938 1.03418 0.335938C1.34668 0.210937 1.70215 0.148438 2.10059 0.148438Z" fill="white"/>
<path d="M11.2412 0.324219C10.9287 0.628906 10.5811 0.960938 10.1982 1.32031C9.81543 1.67188 9.45605 2.03906 9.12012 2.42188C8.79199 2.79688 8.54199 3.16797 8.37012 3.53516C8.5498 3.35547 8.74902 3.21094 8.96777 3.10156C9.18652 2.99219 9.4248 2.9375 9.68262 2.9375C10.1592 2.9375 10.585 3.05078 10.96 3.27734C11.335 3.49609 11.6318 3.79688 11.8506 4.17969C12.0693 4.55469 12.1787 4.98047 12.1787 5.45703C12.1787 5.98047 12.0537 6.46484 11.8037 6.91016C11.5615 7.34766 11.2256 7.69922 10.7959 7.96484C10.3662 8.22266 9.87402 8.35156 9.31934 8.35156C8.7959 8.35156 8.31152 8.23047 7.86621 7.98828C7.4209 7.73828 7.06152 7.39062 6.78809 6.94531C6.51465 6.49219 6.37793 5.95312 6.37793 5.32812C6.37793 4.80469 6.47949 4.29297 6.68262 3.79297C6.88574 3.29297 7.13965 2.82031 7.44434 2.375C7.74902 1.92969 8.05762 1.53125 8.37012 1.17969C8.69043 0.828125 8.96387 0.542969 9.19043 0.324219H11.2412ZM9.2959 4.34375C8.94434 4.34375 8.63965 4.46484 8.38184 4.70703C8.13184 4.94141 8.00684 5.23438 8.00684 5.58594C8.00684 5.96875 8.13184 6.28516 8.38184 6.53516C8.63965 6.78516 8.94434 6.91016 9.2959 6.91016C9.63965 6.91016 9.93652 6.78516 10.1865 6.53516C10.4365 6.28516 10.5615 5.96875 10.5615 5.58594C10.5615 5.23438 10.4365 4.94141 10.1865 4.70703C9.93652 4.46484 9.63965 4.34375 9.2959 4.34375Z" fill="white"/>
<path d="M15.9873 0.148438C16.6592 0.148438 17.2178 0.335938 17.6631 0.710938C18.1162 1.07812 18.4521 1.57422 18.6709 2.19922C18.8975 2.81641 19.0107 3.5 19.0107 4.25C19.0107 5 18.8975 5.6875 18.6709 6.3125C18.4521 6.92969 18.1162 7.42578 17.6631 7.80078C17.2178 8.16797 16.6592 8.35156 15.9873 8.35156C15.3154 8.35156 14.7529 8.16797 14.2998 7.80078C13.8545 7.42578 13.5186 6.92969 13.292 6.3125C13.0732 5.6875 12.9639 5 12.9639 4.25C12.9639 3.5 13.0732 2.81641 13.292 2.19922C13.5186 1.57422 13.8545 1.07812 14.2998 0.710938C14.7529 0.335938 15.3154 0.148438 15.9873 0.148438ZM15.9873 1.56641C15.6748 1.56641 15.4131 1.6875 15.2021 1.92969C14.999 2.16406 14.8467 2.48438 14.7451 2.89062C14.6436 3.28906 14.5928 3.74219 14.5928 4.25C14.5928 4.75781 14.6436 5.21484 14.7451 5.62109C14.8467 6.01953 14.999 6.33594 15.2021 6.57031C15.4131 6.80469 15.6748 6.92188 15.9873 6.92188C16.2998 6.92188 16.5576 6.80469 16.7607 6.57031C16.9717 6.33594 17.1279 6.01953 17.2295 5.62109C17.3389 5.21484 17.3936 4.75781 17.3936 4.25C17.3936 3.74219 17.3389 3.28906 17.2295 2.89062C17.1279 2.48438 16.9717 2.16406 16.7607 1.92969C16.5576 1.6875 16.2998 1.56641 15.9873 1.56641Z" fill="white"/>
<path d="M21.8584 0.148438C22.249 0.148438 22.5928 0.242188 22.8896 0.429688C23.1943 0.609375 23.4326 0.851562 23.6045 1.15625C23.7764 1.46094 23.8623 1.79688 23.8623 2.16406C23.8623 2.53125 23.7764 2.87109 23.6045 3.18359C23.4326 3.48828 23.1943 3.73438 22.8896 3.92188C22.5928 4.10156 22.249 4.19141 21.8584 4.19141C21.4678 4.19141 21.1201 4.10156 20.8154 3.92188C20.5107 3.73438 20.2725 3.48828 20.1006 3.18359C19.9287 2.87109 19.8428 2.53125 19.8428 2.16406C19.8428 1.79688 19.9287 1.46094 20.1006 1.15625C20.2725 0.851562 20.5107 0.609375 20.8154 0.429688C21.1201 0.242188 21.4678 0.148438 21.8584 0.148438ZM21.8584 1.29688C21.6162 1.29688 21.4131 1.38672 21.249 1.56641C21.085 1.73828 21.0029 1.9375 21.0029 2.16406C21.0029 2.40625 21.085 2.61328 21.249 2.78516C21.4131 2.95703 21.6162 3.04297 21.8584 3.04297C22.0928 3.04297 22.292 2.95703 22.4561 2.78516C22.6201 2.61328 22.7021 2.40625 22.7021 2.16406C22.7021 1.9375 22.6201 1.73828 22.4561 1.56641C22.292 1.38672 22.0928 1.29688 21.8584 1.29688Z" fill="white"/>
<path d="M11.9561 12.3516C11.5273 12.3516 1.45605 12.3835 1.45605 15.1539C1.45605 17.3289 7.59766 17.8132 10.2168 17.9207L9.35577 18.8159C9.12871 19.0512 9.12772 19.4347 9.35329 19.6721V19.6726C9.57886 19.91 9.94579 19.9115 10.1726 19.6752L11.8226 17.9607C12.0495 17.7249 12.0696 17.3237 11.8636 17.0676C11.4468 16.5498 10.7726 15.718 10.3537 15.2009C10.1468 14.9464 9.78108 14.9142 9.53712 15.1313C9.29342 15.3479 9.26336 15.7299 9.47055 15.985L10.0531 16.7028C6.359 16.5456 4.0541 15.9652 3.10213 15.4936C2.81296 15.3505 2.80998 14.9534 3.09915 14.8093C4.24638 14.2403 7.31445 13.5625 11.9563 13.5625C16.5984 13.5625 19.6662 14.2406 20.8132 14.8093C21.1024 14.9529 21.0994 15.3505 20.8097 15.4936C19.816 15.9852 17.3531 16.5973 13.3711 16.722C13.0516 16.7321 12.7965 17.0076 12.8024 17.3424C12.8082 17.6766 13.072 17.9431 13.392 17.9322C15.8019 17.8501 22.4561 17.4174 22.4561 15.1537C22.4558 12.3835 12.3848 12.3516 11.9561 12.3516Z" fill="white"/>
</svg>
