<svg width="25" height="24" viewBox="0 0 25 24" fill="none" xmlns="http://www.w3.org/2000/svg">
<path d="M6.96264 11.7273C7.10157 8.63597 9.59056 6.14724 12.6819 6.00805V0.000488281C6.28026 0.144217 1.09881 5.3254 0.955078 11.7273H6.96264Z" fill="white"/>
<path d="M12.6819 23.9993V17.9917C9.59056 17.8528 7.10183 15.3638 6.96264 12.2727H0.955078C1.09881 18.6744 6.28026 23.8556 12.6819 23.9993Z" fill="white"/>
<path d="M18.9495 12.2727C18.8106 15.3638 16.3216 17.8528 13.2305 17.9917V23.9996C19.6319 23.8558 24.8133 18.6747 24.9571 12.2727H18.9495Z" fill="white"/>
<path d="M13.2305 0.000488281V6.00805C16.3216 6.14698 18.8106 8.63597 18.9495 11.7273H24.9573C24.8136 5.3254 19.6321 0.144217 13.2305 0.000488281Z" fill="white"/>
</svg>
