<svg width="22" height="24" viewBox="0 0 22 24" fill="none" xmlns="http://www.w3.org/2000/svg">
<path d="M10.3939 20.4323C9.42382 20.4323 8.51636 20.3697 7.64019 20.2758C7.51503 20.2758 7.35857 20.2446 7.2334 20.2446V21.6214C7.2334 22.9356 8.29732 23.9996 9.61157 23.9996H11.3326C12.6469 23.9996 13.7108 22.9356 13.7108 21.6214V20.2133C13.5856 20.2445 13.4292 20.2446 13.304 20.2758C12.4278 20.3697 11.4265 20.4323 10.3939 20.4323Z" fill="white"/>
<path d="M7.53809 2.94191C7.53809 4.56909 8.85234 5.88334 10.4795 5.88334C12.1067 5.88334 13.4209 4.56909 13.4209 2.94191C13.4209 1.31474 12.1067 0.000488281 10.4795 0.000488281C8.88363 0.0317801 7.53809 1.34603 7.53809 2.94191Z" fill="white"/>
<path d="M21.9013 17.0235C21.7136 16.0221 21.3694 15.0208 20.8687 13.9882C20.7748 13.8004 20.6496 13.5814 20.5245 13.3623C20.4932 13.2998 20.4306 13.2685 20.368 13.2685C20.3054 13.2685 20.2428 13.2685 20.2116 13.331C19.398 14.0508 18.4592 14.833 17.4266 15.5528C16.9885 15.8657 16.5191 16.1786 16.0185 16.5228C15.9559 16.5854 15.9246 16.648 15.9246 16.7418C15.9559 16.8357 16.0185 16.8983 16.1123 16.8983C16.3314 16.9296 16.5817 16.9296 16.8008 16.9609C17.0511 16.9922 17.2701 16.9922 17.5205 17.0235C17.3953 17.0861 17.2701 17.1486 17.1137 17.1799C16.7382 17.3051 16.3627 17.4616 15.9559 17.5554C15.2675 17.7432 14.5477 17.8996 13.7655 17.9935V16.4602C14.4226 16.0221 14.8294 15.3024 14.8294 14.4575V8.9502C14.8294 7.63594 13.7655 6.57202 12.4512 6.57202H8.57102C7.25676 6.57202 6.19284 7.63594 6.19284 8.9502V11.078C2.46912 11.7352 -0.00292969 13.2372 -0.00292969 15.1147C-0.00292969 15.3963 0.059654 15.6779 0.184821 15.9596C1.09228 18.0248 5.1915 19.4642 10.4172 19.4642C14.5477 19.4642 17.9898 18.5568 19.6796 17.1486C20.368 17.1799 21.0251 17.2112 21.7136 17.2425H21.7449C21.7761 17.2425 21.8387 17.2112 21.87 17.1799C21.9013 17.1486 21.9326 17.0861 21.9013 17.0235ZM7.22547 18.0248C5.91122 17.8371 4.69084 17.5554 3.6895 17.1799C2.46912 16.7106 1.65553 16.1473 1.34262 15.5841C1.31132 15.5215 1.28003 15.4276 1.24874 15.365C1.21745 15.2711 1.21745 15.2086 1.21745 15.1147C1.21745 14.395 2.1562 13.6127 3.6895 13.0181C4.40921 12.7365 5.25409 12.5175 6.16155 12.3297V14.4888C6.16155 15.3024 6.59963 16.0534 7.22547 16.4915V18.0248Z" fill="white"/>
</svg>
