<svg width="24" height="25" viewBox="0 0 24 25" fill="none" xmlns="http://www.w3.org/2000/svg">
<path d="M10.5 0.5H13.5V12.5H10.5V0.5ZM16.5 1.39062L16.5703 1.41406C17.6641 1.86719 18.6641 2.46484 19.5703 3.20703C20.4766 3.94922 21.2578 4.80078 21.9141 5.76172C22.5703 6.72266 23.082 7.77344 23.4492 8.91406C23.8164 10.0547 24 11.25 24 12.5C24 14.1562 23.6875 15.7148 23.0625 17.1758C22.4375 18.6367 21.582 19.9102 20.4961 20.9961C19.4102 22.082 18.1367 22.9375 16.6758 23.5625C15.2148 24.1875 13.6562 24.5 12 24.5C10.3438 24.5 8.78516 24.1875 7.32422 23.5625C5.86328 22.9375 4.58984 22.082 3.50391 20.9961C2.41797 19.9102 1.5625 18.6367 0.9375 17.1758C0.3125 15.7148 0 14.1562 0 12.5C0 11.25 0.183594 10.0547 0.550781 8.91406C0.917969 7.77344 1.42969 6.72266 2.08594 5.76172C2.74219 4.80078 3.53125 3.94531 4.45312 3.19531C5.375 2.44531 6.39062 1.84375 7.5 1.39062L7.45312 4.74219C6.79688 5.13281 6.19141 5.60156 5.63672 6.14844C5.08203 6.69531 4.60938 7.30078 4.21875 7.96484C3.82812 8.62891 3.52734 9.34375 3.31641 10.1094C3.10547 10.875 3 11.6719 3 12.5C3 13.75 3.23438 14.9219 3.70312 16.0156C4.17188 17.1094 4.81641 18.0625 5.63672 18.875C6.45703 19.6875 7.41016 20.3281 8.49609 20.7969C9.58203 21.2656 10.75 21.5 12 21.5C13.25 21.5 14.418 21.2656 15.5039 20.7969C16.5898 20.3281 17.543 19.6875 18.3633 18.875C19.1836 18.0625 19.8281 17.1094 20.2969 16.0156C20.7656 14.9219 21 13.75 21 12.5C21 11.6719 20.8945 10.875 20.6836 10.1094C20.4727 9.34375 20.168 8.62891 19.7695 7.96484C19.3711 7.30078 18.8945 6.69141 18.3398 6.13672C17.7852 5.58203 17.1719 5.10938 16.5 4.71875V1.39062Z" fill="#F6F6F6"/>
</svg>
