<svg width="25" height="24" viewBox="0 0 25 24" fill="none" xmlns="http://www.w3.org/2000/svg">
<path d="M5.6519 20.1402C4.73145 20.1402 4.03542 19.9072 3.56383 19.4413C3.09224 18.9754 2.85645 18.2879 2.85645 17.3788V6.99816C2.85645 6.08907 3.09224 5.40157 3.56383 4.93566C4.03542 4.46407 4.73145 4.22827 5.6519 4.22827H20.2428C21.1689 4.22827 21.8678 4.46407 22.3394 4.93566C22.811 5.40157 23.0468 6.08907 23.0468 6.99816V17.3788C23.0468 18.2879 22.811 18.9754 22.3394 19.4413C21.8678 19.9072 21.1689 20.1402 20.2428 20.1402H5.6519ZM5.75417 18.4697H20.1491C20.5411 18.4697 20.8422 18.3675 21.0525 18.1629C21.2627 17.9527 21.3678 17.643 21.3678 17.234V7.14304C21.3678 6.73395 21.2627 6.42713 21.0525 6.22259C20.8422 6.01236 20.5411 5.90725 20.1491 5.90725H5.75417C5.35645 5.90725 5.05247 6.01236 4.84224 6.22259C4.6377 6.42713 4.53542 6.73395 4.53542 7.14304V17.234C4.53542 17.643 4.6377 17.9527 4.84224 18.1629C5.05247 18.3675 5.35645 18.4697 5.75417 18.4697ZM11.4559 15.5209C11.3025 15.6118 11.1491 15.6516 10.9956 15.6402C10.8479 15.6232 10.7229 15.5663 10.6206 15.4697C10.5184 15.3675 10.4672 15.234 10.4672 15.0692V9.29929C10.4672 9.13452 10.5184 9.00384 10.6206 8.90725C10.7229 8.81066 10.8508 8.75668 11.0042 8.74532C11.1633 8.72827 11.3138 8.76236 11.4559 8.84759L16.1945 11.6516C16.3309 11.7311 16.4218 11.8419 16.4672 11.984C16.5127 12.1203 16.5127 12.2595 16.4672 12.4016C16.4275 12.5379 16.3366 12.6487 16.1945 12.734L11.4559 15.5209Z" fill="white"/>
</svg>
