<svg width="24" height="25" viewBox="0 0 24 25" fill="none" xmlns="http://www.w3.org/2000/svg">
<path opacity="0.5" fill-rule="evenodd" clip-rule="evenodd" d="M12 0.5C5.37258 0.5 0 5.87258 0 12.5C0 19.1274 5.37258 24.5 12 24.5C18.6274 24.5 24 19.1274 24 12.5C24 5.87258 18.6274 0.5 12 0.5ZM13.3043 20.4779V17.1569C13.3043 16.8149 13.1333 16.6439 12.7913 16.6439H10.3883C10.0283 16.6439 9.84834 16.8239 9.84834 17.1839V20.4509C9.84834 20.8469 10.0283 21.0449 10.3883 21.0449H12.7913C13.1333 21.0449 13.3043 20.8559 13.3043 20.4779ZM13.2773 14.3219V13.6199C13.2773 13.1879 13.5113 12.7559 13.9793 12.3239L15.8153 10.8389C16.6253 10.1369 17.0303 9.34494 17.0303 8.46294V8.08494C17.0303 6.68094 16.6433 5.60094 15.8693 4.84494C15.0953 4.08894 13.9973 3.71094 12.5753 3.71094H10.9823C9.56034 3.71094 8.46234 4.08894 7.68834 4.84494C6.91434 5.60094 6.52734 6.68094 6.52734 8.08494V8.70594C6.52734 9.10194 6.71634 9.29994 7.09434 9.29994H9.38934C9.76734 9.29994 9.95634 9.10194 9.95634 8.70594V8.13894C9.95634 7.56294 10.0733 7.15794 10.3073 6.92394C10.5593 6.68994 10.9643 6.57294 11.5223 6.57294H12.0083C12.6023 6.57294 13.0253 6.69894 13.2773 6.95094C13.5473 7.18494 13.6823 7.58094 13.6823 8.13894V8.30094C13.6823 8.84094 13.3943 9.33594 12.8183 9.78594L11.3063 11.0279C10.8383 11.4059 10.5053 11.7839 10.3073 12.1619C10.1093 12.5219 10.0103 12.9989 10.0103 13.5929V14.3219C10.0103 14.6999 10.1993 14.8889 10.5773 14.8889H12.7103C13.0883 14.8889 13.2773 14.6999 13.2773 14.3219Z" fill="#F6F6F6"/>
</svg>
